<mxfile host="app.diagrams.net" modified="2022-10-26T14:41:00.386Z" agent="5.0 (Windows NT 10.0; Win64; x64) AppleWebKit/537.36 (KHTML, like Gecko) Chrome/106.0.0.0 Safari/537.36 Edg/106.0.1370.52" etag="JxY3XYkM5tEsurxVBywg" version="20.5.1" type="github">
  <diagram id="IvnuImq-quck8xxe-Ewu" name="第 1 页">
    <mxGraphModel dx="868" dy="1618" grid="1" gridSize="10" guides="1" tooltips="1" connect="1" arrows="1" fold="1" page="1" pageScale="1" pageWidth="827" pageHeight="1169" math="0" shadow="0">
      <root>
        <mxCell id="0" />
        <mxCell id="1" parent="0" />
        <mxCell id="GWhKTSf6pwxWuit27Vb_-15" value="设计模式" style="rounded=1;whiteSpace=wrap;html=1;fillColor=#fff2cc;strokeColor=#d6b656;" parent="1" vertex="1">
          <mxGeometry x="100" y="160" width="100" height="40" as="geometry" />
        </mxCell>
        <mxCell id="GWhKTSf6pwxWuit27Vb_-16" value="创建型" style="rounded=1;whiteSpace=wrap;html=1;fillColor=#dae8fc;strokeColor=#6c8ebf;" parent="1" vertex="1">
          <mxGeometry x="240" y="50" width="100" height="40" as="geometry" />
        </mxCell>
        <mxCell id="GWhKTSf6pwxWuit27Vb_-17" value="结构型" style="rounded=1;whiteSpace=wrap;html=1;fillColor=#dae8fc;strokeColor=#6c8ebf;" parent="1" vertex="1">
          <mxGeometry x="240" y="160" width="100" height="40" as="geometry" />
        </mxCell>
        <mxCell id="GWhKTSf6pwxWuit27Vb_-18" value="行为型" style="rounded=1;whiteSpace=wrap;html=1;fillColor=#dae8fc;strokeColor=#6c8ebf;" parent="1" vertex="1">
          <mxGeometry x="240" y="270" width="100" height="40" as="geometry" />
        </mxCell>
        <mxCell id="GWhKTSf6pwxWuit27Vb_-19" value="" style="endArrow=classic;html=1;rounded=0;exitX=1;exitY=0.5;exitDx=0;exitDy=0;entryX=0;entryY=0.5;entryDx=0;entryDy=0;" parent="1" source="GWhKTSf6pwxWuit27Vb_-15" target="GWhKTSf6pwxWuit27Vb_-17" edge="1">
          <mxGeometry width="50" height="50" relative="1" as="geometry">
            <mxPoint x="390" y="190" as="sourcePoint" />
            <mxPoint x="440" y="140" as="targetPoint" />
          </mxGeometry>
        </mxCell>
        <mxCell id="GWhKTSf6pwxWuit27Vb_-20" value="" style="endArrow=classic;html=1;rounded=1;exitX=1;exitY=0.5;exitDx=0;exitDy=0;" parent="1" source="GWhKTSf6pwxWuit27Vb_-15" target="GWhKTSf6pwxWuit27Vb_-16" edge="1">
          <mxGeometry width="50" height="50" relative="1" as="geometry">
            <mxPoint x="390" y="190" as="sourcePoint" />
            <mxPoint x="200" y="70" as="targetPoint" />
            <Array as="points">
              <mxPoint x="200" y="80" />
              <mxPoint x="200" y="70" />
            </Array>
          </mxGeometry>
        </mxCell>
        <mxCell id="GWhKTSf6pwxWuit27Vb_-21" value="" style="endArrow=classic;html=1;rounded=1;" parent="1" edge="1">
          <mxGeometry width="50" height="50" relative="1" as="geometry">
            <mxPoint x="200" y="180" as="sourcePoint" />
            <mxPoint x="240" y="290" as="targetPoint" />
            <Array as="points">
              <mxPoint x="200" y="290" />
              <mxPoint x="240" y="290" />
            </Array>
          </mxGeometry>
        </mxCell>
        <mxCell id="GWhKTSf6pwxWuit27Vb_-22" value="简单工厂模式" style="rounded=1;whiteSpace=wrap;html=1;fillColor=#d5e8d4;strokeColor=#82b366;" parent="1" vertex="1">
          <mxGeometry x="364" y="-80" width="100" height="40" as="geometry" />
        </mxCell>
        <mxCell id="GWhKTSf6pwxWuit27Vb_-23" value="" style="endArrow=classic;html=1;rounded=1;exitX=1;exitY=0.5;exitDx=0;exitDy=0;entryX=0;entryY=0.5;entryDx=0;entryDy=0;" parent="1" source="GWhKTSf6pwxWuit27Vb_-16" target="GWhKTSf6pwxWuit27Vb_-22" edge="1">
          <mxGeometry width="50" height="50" relative="1" as="geometry">
            <mxPoint x="210" y="190" as="sourcePoint" />
            <mxPoint x="250" y="80" as="targetPoint" />
            <Array as="points">
              <mxPoint x="340" y="20" />
              <mxPoint x="340" y="-60" />
            </Array>
          </mxGeometry>
        </mxCell>
        <mxCell id="GWhKTSf6pwxWuit27Vb_-24" value="通过工厂获取到不同的实例对象" style="rounded=0;whiteSpace=wrap;html=1;fillColor=#bac8d3;strokeColor=#23445d;" parent="1" vertex="1">
          <mxGeometry x="520" y="-80" width="330" height="40" as="geometry" />
        </mxCell>
        <mxCell id="eNJl94Mn2xMhTtyMlotp-2" value="" style="endArrow=none;dashed=1;html=1;dashPattern=1 3;strokeWidth=2;rounded=0;entryX=1;entryY=0.5;entryDx=0;entryDy=0;exitX=0;exitY=0.5;exitDx=0;exitDy=0;" edge="1" parent="1" source="GWhKTSf6pwxWuit27Vb_-24" target="GWhKTSf6pwxWuit27Vb_-22">
          <mxGeometry width="50" height="50" relative="1" as="geometry">
            <mxPoint x="420" y="380" as="sourcePoint" />
            <mxPoint x="470" y="330" as="targetPoint" />
          </mxGeometry>
        </mxCell>
      </root>
    </mxGraphModel>
  </diagram>
</mxfile>
